<svg xmlns="http://www.w3.org/2000/svg" width="148" height="33" viewBox="0 0 148 33" fill="none"><g id="&lt;Group&gt;"><path id="&lt;Compound Path&gt;" d="M87.0767 2.26074L94.4871 13.6894L101.898 2.26074H105.51V25.0042H101.599V9.72345L94.4871 20.5408L87.3611 9.72345V25.0042H83.4639V2.26074H87.0767Z" fill="black"></path><path id="&lt;Compound Path&gt;_2" fill-rule="evenodd" clip-rule="evenodd" d="M115.681 9.21094C116.829 9.21094 117.9 9.41468 118.896 9.82217C119.892 10.2391 120.764 10.8125 121.513 11.5421C122.262 12.2813 122.85 13.1437 123.277 14.1292C123.694 15.1148 123.903 16.1714 123.903 17.2991C123.903 18.4268 123.694 19.4834 123.277 20.469C122.85 21.4545 122.262 22.3074 121.513 23.0276C120.764 23.7573 119.892 24.3306 118.896 24.7476C117.9 25.174 116.829 25.3873 115.681 25.3873C114.534 25.3873 113.463 25.174 112.467 24.7476C111.471 24.3306 110.599 23.7573 109.85 23.0276C109.101 22.3074 108.513 21.4545 108.086 20.469C107.669 19.4834 107.46 18.4268 107.46 17.2991C107.46 16.1714 107.669 15.1148 108.086 14.1292C108.513 13.1437 109.101 12.2813 109.85 11.5421C110.599 10.8125 111.471 10.2391 112.467 9.82217C113.463 9.41468 114.534 9.21094 115.681 9.21094ZM115.681 21.7483C116.336 21.7483 116.928 21.6298 117.459 21.3929C117.99 21.156 118.436 20.8338 118.796 20.4263C119.166 20.0283 119.451 19.5592 119.65 19.0191C119.839 18.4789 119.934 17.9056 119.934 17.2991C119.934 16.6926 119.839 16.124 119.65 15.5933C119.451 15.0627 119.166 14.5888 118.796 14.1719C118.436 13.7644 117.99 13.4422 117.459 13.2053C116.928 12.9684 116.336 12.8499 115.681 12.8499C115.027 12.8499 114.434 12.9684 113.903 13.2053C113.372 13.4422 112.927 13.7644 112.566 14.1719C112.197 14.5888 111.912 15.0627 111.713 15.5933C111.523 16.124 111.429 16.6926 111.429 17.2991C111.429 17.9056 111.523 18.4789 111.713 19.0191C111.912 19.5592 112.197 20.0283 112.566 20.4263C112.927 20.8338 113.372 21.156 113.903 21.3929C114.434 21.6298 115.027 21.7483 115.681 21.7483Z" fill="black"></path><path id="&lt;Path&gt;" d="M121.598 28.5713C121.797 28.704 122.001 28.813 122.209 28.8983C122.389 28.9836 122.588 29.0594 122.807 29.1257C123.015 29.192 123.228 29.2252 123.447 29.2252C123.665 29.2252 123.906 29.1968 124.172 29.1399C124.428 29.0831 124.67 28.9551 124.897 28.7561C125.125 28.5476 125.315 28.2302 125.466 27.8037C125.618 27.3868 125.694 26.7992 125.694 26.0411V9.59473H129.591V26.3965C129.591 27.6474 129.402 28.6898 129.022 29.5237C128.643 30.3576 128.169 31.021 127.6 31.5138C127.021 31.9971 126.4 32.343 125.737 32.5514C125.082 32.7599 124.461 32.8642 123.873 32.8642C123.333 32.8642 122.84 32.812 122.394 32.7078C121.948 32.613 121.564 32.4993 121.242 32.3667C120.853 32.215 120.507 32.0445 120.204 31.8549L121.598 28.5713Z" fill="black"></path><path id="&lt;Path&gt;_2" d="M124.213 4.09403C124.213 3.14639 124.545 2.34563 125.209 1.69175C125.863 1.03788 126.665 0.710938 127.613 0.710938C128.552 0.710938 129.353 1.03788 130.017 1.69175C130.671 2.34563 130.998 3.14639 130.998 4.09403C130.998 5.04168 130.671 5.84244 130.017 6.49632C129.353 7.15967 128.552 7.49134 127.613 7.49134C126.665 7.49134 125.863 7.15967 125.209 6.49632C124.545 5.84244 124.213 5.04168 124.213 4.09403Z" fill="url(#paint0_linear_64_122)"></path><path id="&lt;Compound Path&gt;_3" fill-rule="evenodd" clip-rule="evenodd" d="M139.705 9.21094C140.852 9.21094 141.924 9.41468 142.919 9.82217C143.915 10.2391 144.787 10.8125 145.536 11.5421C146.285 12.2813 146.869 13.1437 147.286 14.1292C147.713 15.1148 147.926 16.1714 147.926 17.2991C147.926 18.4268 147.713 19.4834 147.286 20.469C146.869 21.4545 146.285 22.3074 145.536 23.0276C144.787 23.7573 143.915 24.3306 142.919 24.7476C141.924 25.174 140.852 25.3873 139.705 25.3873C138.557 25.3873 137.481 25.174 136.476 24.7476C135.48 24.3306 134.608 23.7573 133.859 23.0276C133.119 22.3074 132.536 21.4545 132.109 20.469C131.683 19.4834 131.469 18.4268 131.469 17.2991C131.469 16.1714 131.683 15.1148 132.109 14.1292C132.536 13.1437 133.119 12.2813 133.859 11.5421C134.608 10.8125 135.48 10.2391 136.476 9.82217C137.481 9.41468 138.557 9.21094 139.705 9.21094ZM139.705 21.7483C140.349 21.7483 140.937 21.6298 141.468 21.3929C141.999 21.156 142.45 20.8338 142.82 20.4263C143.189 20.0283 143.474 19.5592 143.673 19.0191C143.863 18.4789 143.958 17.9056 143.958 17.2991C143.958 16.6926 143.863 16.124 143.673 15.5933C143.474 15.0627 143.189 14.5888 142.82 14.1719C142.45 13.7644 141.999 13.4422 141.468 13.2053C140.937 12.9684 140.349 12.8499 139.705 12.8499C139.05 12.8499 138.458 12.9684 137.927 13.2053C137.396 13.4422 136.945 13.7644 136.575 14.1719C136.206 14.5888 135.926 15.0627 135.736 15.5933C135.537 16.124 135.438 16.6926 135.438 17.2991C135.438 17.9056 135.537 18.4789 135.736 19.0191C135.926 19.5592 136.206 20.0283 136.575 20.4263C136.945 20.8338 137.396 21.156 137.927 21.3929C138.458 21.6298 139.05 21.7483 139.705 21.7483Z" fill="black"></path><path id="&lt;Compound Path&gt;_4" d="M1.33701 21.0517C1.64045 21.5539 2.02923 21.9993 2.50335 22.3878C2.92057 22.71 3.4421 23.0085 4.06794 23.2834C4.70326 23.5582 5.46659 23.6956 6.35793 23.6956C6.76567 23.6956 7.20186 23.6482 7.6665 23.5534C8.12165 23.4682 8.53887 23.326 8.91817 23.127C9.29746 22.9185 9.61512 22.6532 9.87115 22.331C10.1177 21.9993 10.241 21.5871 10.241 21.0943C10.241 20.6773 10.1319 20.322 9.91382 20.0282C9.69572 19.7439 9.40177 19.4975 9.03196 19.289C8.67163 19.0806 8.24018 18.9052 7.73761 18.7631C7.23505 18.6209 6.69455 18.4883 6.11613 18.3651C4.48516 17.9955 3.2003 17.4743 2.26155 16.8015C1.31331 16.1286 0.83919 15.1762 0.83919 13.9443C0.83919 13.4231 0.962461 12.9066 1.209 12.3949C1.44606 11.8927 1.79217 11.4425 2.24732 11.0445C2.70248 10.656 3.24771 10.3433 3.88303 10.1063C4.52783 9.86943 5.25797 9.75098 6.07346 9.75098C6.94584 9.75098 7.71865 9.85996 8.3919 10.0779C9.06515 10.2959 9.61512 10.5328 10.0418 10.7886C10.5634 11.0919 11.009 11.4378 11.3788 11.8263L10.2694 13.063C9.94701 12.7598 9.57719 12.4897 9.15997 12.2528C8.79016 12.0348 8.34923 11.8405 7.83718 11.67C7.32513 11.4994 6.73248 11.4141 6.05923 11.4141C5.03514 11.4141 4.19121 11.6463 3.52744 12.1106C2.86368 12.575 2.53179 13.1862 2.53179 13.9443C2.53179 14.3992 2.64558 14.7782 2.87316 15.0815C3.10073 15.3847 3.41839 15.6453 3.82614 15.8633C4.2244 16.0813 4.69851 16.266 5.24849 16.4177C5.78899 16.5693 6.37215 16.7067 6.99799 16.8299C7.69968 16.9815 8.35397 17.1663 8.96084 17.3843C9.56771 17.6022 10.094 17.8723 10.5397 18.1945C10.9853 18.5262 11.3409 18.9242 11.6064 19.3885C11.8624 19.8529 11.9905 20.4215 11.9905 21.0943C11.9905 21.805 11.8293 22.4257 11.5069 22.9564C11.1845 23.4871 10.753 23.9325 10.2125 24.2926C9.6815 24.6527 9.07937 24.918 8.40612 25.0886C7.73287 25.2592 7.05014 25.3445 6.35793 25.3445C5.24849 25.3445 4.29551 25.1834 3.49899 24.8612C2.70248 24.539 2.04345 24.1789 1.52192 23.7809C0.915048 23.326 0.407742 22.7953 0 22.1888L1.33701 21.0517Z" fill="black"></path><path id="&lt;Compound Path&gt;_5" fill-rule="evenodd" clip-rule="evenodd" d="M27.8347 10.1357V24.9617H26.3128V22.2325C25.962 22.8105 25.5163 23.327 24.9758 23.7818C24.5206 24.1799 23.947 24.54 23.2547 24.8622C22.5625 25.1844 21.7281 25.3455 20.7514 25.3455C19.7273 25.3455 18.7743 25.1559 17.8925 24.7769C17.0011 24.3978 16.2236 23.8671 15.5598 23.1848C14.896 22.5025 14.3745 21.6781 13.9952 20.7115C13.6159 19.7544 13.4263 18.7025 13.4263 17.5558C13.4263 16.3997 13.6159 15.3431 13.9952 14.3859C14.3745 13.4193 14.896 12.5949 15.5598 11.9126C16.2236 11.2303 17.0011 10.6996 17.8925 10.3205C18.7743 9.94148 19.7273 9.75195 20.7514 9.75195C21.7281 9.75195 22.5625 9.91305 23.2547 10.2353C23.947 10.5669 24.5206 10.927 24.9758 11.3156C25.5163 11.7704 25.962 12.2869 26.3128 12.865V10.1357H27.8347ZM26.1421 14.855C25.8102 14.2296 25.3883 13.6563 24.8762 13.135C24.44 12.6991 23.8853 12.3011 23.2121 11.941C22.5388 11.5904 21.7281 11.4151 20.7799 11.4151C19.9549 11.4151 19.1963 11.5714 18.5041 11.8842C17.8024 12.1969 17.2097 12.6281 16.7261 13.1777C16.2425 13.7273 15.8632 14.3765 15.5883 15.1251C15.3133 15.8737 15.1758 16.684 15.1758 17.5558C15.1758 18.4182 15.3133 19.2237 15.5883 19.9723C15.8632 20.721 16.2425 21.3701 16.7261 21.9197C17.2097 22.4694 17.8024 22.9005 18.5041 23.2133C19.1963 23.5355 19.9549 23.6966 20.7799 23.6966C21.7281 23.6966 22.5388 23.5165 23.2121 23.1564C23.8853 22.7963 24.44 22.3983 24.8762 21.9624C25.3883 21.4696 25.8102 20.8963 26.1421 20.2424V14.855Z" fill="black"></path><path id="&lt;Compound Path&gt;_6" d="M29.5127 10.1777H32.4001V4.33548C32.4001 3.62475 32.5186 2.9993 32.7557 2.45914C32.9927 1.92846 33.3009 1.47833 33.6802 1.10875C34.0595 0.739163 34.4909 0.464346 34.9745 0.284294C35.4676 0.0947646 35.9607 0 36.4538 0C36.89 0 37.3262 0.0426443 37.7624 0.127932C38.1985 0.222697 38.7059 0.421702 39.2843 0.724949L38.5731 2.17485C38.4214 2.08956 38.2365 2.00427 38.0184 1.91898C37.8477 1.85265 37.6438 1.79579 37.4068 1.74841C37.1697 1.69155 36.9279 1.66312 36.6814 1.66312C35.7142 1.66312 35.0409 1.95689 34.6616 2.54443C34.2823 3.13197 34.0927 3.88061 34.0927 4.79035V10.1777H37.9899V11.6987H34.0927V24.961H32.4001V11.6987H29.5127V10.1777Z" fill="black"></path><path id="&lt;Compound Path&gt;_7" fill-rule="evenodd" clip-rule="evenodd" d="M45.3154 9.75195C46.2826 9.75195 47.2071 9.94622 48.089 10.3348C48.9708 10.7233 49.7342 11.2587 50.379 11.941C51.0332 12.6233 51.55 13.4478 51.9293 14.4144C52.3086 15.381 52.4983 16.4281 52.4983 17.5558C52.4983 17.7074 52.4983 17.8117 52.4983 17.8685C52.4983 17.9349 52.484 18.0581 52.4556 18.2381H39.6828C39.7018 18.7972 39.844 19.3943 40.1095 20.0292C40.3656 20.6736 40.7401 21.2659 41.2332 21.806C41.7168 22.3462 42.3237 22.7963 43.0538 23.1564C43.7745 23.5165 44.6232 23.6966 45.5998 23.6966C46.1688 23.6966 46.7045 23.6255 47.2071 23.4833C47.7191 23.3412 48.1885 23.1517 48.6152 22.9148C49.0325 22.6778 49.4165 22.4078 49.7673 22.1045C50.1087 21.8013 50.4121 21.4838 50.6776 21.1521L51.8155 22.332C51.0949 23.1943 50.1893 23.9145 49.0988 24.4926C47.9989 25.0612 46.8325 25.3455 45.5998 25.3455C44.4999 25.3455 43.4805 25.1417 42.5418 24.7342C41.6125 24.3173 40.8112 23.7534 40.138 23.0427C39.4647 22.3225 38.9385 21.4933 38.5592 20.5551C38.1799 19.6169 37.9902 18.6172 37.9902 17.5558C37.9902 16.5134 38.1657 15.5184 38.5165 14.5707C38.8579 13.6326 39.351 12.8081 39.9958 12.0974C40.6311 11.3772 41.3991 10.8086 42.3 10.3916C43.2008 9.96517 44.2059 9.75195 45.3154 9.75195ZM50.7345 16.7029C50.7156 16.286 50.6065 15.7742 50.4074 15.1678C50.2177 14.5613 49.9048 13.9785 49.4686 13.4193C49.0325 12.8602 48.473 12.3864 47.7903 11.9979C47.1075 11.6093 46.2826 11.4151 45.3154 11.4151C44.2723 11.4151 43.4047 11.6141 42.7125 12.0121C42.0202 12.4196 41.456 12.8981 41.0199 13.4478C40.5837 14.0069 40.2707 14.5849 40.0811 15.182C39.882 15.779 39.7729 16.286 39.754 16.7029H50.7345Z" fill="black"></path><path id="&lt;Compound Path&gt;_8" d="M52.7407 10.1356H55.6566V5.33105H57.3492V10.1356H62.3843L63.1808 11.6708H57.3492V20.5976C57.3492 21.0146 57.3918 21.4079 57.4772 21.7775C57.5625 22.147 57.7047 22.4692 57.9039 22.744C58.103 23.0283 58.3685 23.251 58.7004 23.4121C59.0323 23.5732 59.4495 23.6538 59.9521 23.6538C60.2555 23.6538 60.5305 23.6206 60.777 23.5543C61.0236 23.4974 61.2559 23.4216 61.474 23.3269C61.7205 23.2416 61.9481 23.1231 62.1567 22.9715L62.811 24.4356C62.5265 24.6062 62.2231 24.7578 61.9007 24.8905C61.6162 25.0042 61.3033 25.1037 60.9619 25.189C60.6111 25.2743 60.2508 25.3169 59.8809 25.3169C59.1698 25.3169 58.5487 25.2032 58.0177 24.9758C57.4866 24.7483 57.0457 24.4356 56.6949 24.0376C56.3535 23.6301 56.0975 23.161 55.9268 22.6303C55.7466 22.0996 55.6566 21.5311 55.6566 20.9246V11.6708H52.7407V10.1356Z" fill="black"></path><path id="&lt;Compound Path&gt;_9" d="M63.9918 30.15C64.1719 30.349 64.3711 30.5243 64.5892 30.676C64.7598 30.8086 64.9637 30.9224 65.2008 31.0171C65.4378 31.1119 65.7081 31.1593 66.0115 31.1593C66.5805 31.1593 67.0261 30.9982 67.3485 30.676C67.6709 30.3538 67.9838 29.8231 68.2873 29.0839L69.8234 25.2175L62.4414 10.1357H64.262L70.6911 23.4265L75.8684 10.1357H77.6179C76.2335 13.6515 74.9771 16.8166 73.8487 19.6312C73.3746 20.8441 72.9052 22.0334 72.4406 23.199C71.9664 24.3741 71.5397 25.4307 71.1604 26.3689C70.7812 27.3166 70.4682 28.0984 70.2217 28.7143C69.9752 29.3303 69.8282 29.6904 69.7808 29.7947C69.3541 30.9034 68.8278 31.6852 68.2019 32.1401C67.5856 32.5949 66.8128 32.8224 65.8835 32.8224C65.4947 32.8224 65.1202 32.756 64.7598 32.6234C64.409 32.4907 64.1008 32.3391 63.8353 32.1685C63.5319 31.979 63.2522 31.761 62.9961 31.5146L63.9918 30.15Z" fill="black"></path></g><defs><linearGradient id="paint0_linear_64_122" x1="124.218" y1="0.704825" x2="131.003" y2="0.704825" gradientUnits="userSpaceOnUse"><stop stop-color="#D80073"></stop><stop offset="1" stop-color="#DC3C20"></stop></linearGradient></defs></svg>