<?xml version="1.0" encoding="UTF-8" ?>
<!DOCTYPE svg PUBLIC "-//W3C//DTD SVG 1.1//EN" "http://www.w3.org/Graphics/SVG/1.1/DTD/svg11.dtd">
<svg width="241.5pt" height="232.5pt" viewBox="0 0 739 711" version="1.1" xmlns="http://www.w3.org/2000/svg">
<path fill="#fdfeff" d=" M 215.52 64.39 C 222.43 55.64 233.43 50.50 244.35 49.09 C 241.55 52.16 238.01 54.39 234.30 56.19 C 228.17 59.20 222.06 62.36 215.52 64.39 Z" />
<path fill="#fdfeff" d=" M 493.46 49.39 C 498.79 49.30 503.86 51.30 508.60 53.57 C 513.86 56.22 519.01 59.52 522.50 64.39 C 518.09 63.12 513.95 61.12 509.82 59.17 C 504.09 56.43 498.22 53.69 493.46 49.39 Z" />
<path fill="#fdfeff" d=" M 140.07 116.23 C 140.81 106.71 143.81 97.53 147.21 88.67 C 148.58 98.32 146.06 108.51 140.07 116.23 Z" />
<path fill="#fdfeff" d=" M 597.97 116.23 C 591.85 108.55 589.48 98.24 590.77 88.58 C 594.14 97.49 597.14 106.68 597.97 116.23 Z" />
<path fill="#fdfeff" d=" M 142.47 117.68 C 150.35 111.70 160.61 110.81 170.17 111.42 C 161.37 114.93 152.01 117.73 142.47 117.68 Z" />
<path fill="#fdfeff" d=" M 567.82 111.51 C 577.61 110.53 587.84 112.06 596.09 117.73 C 586.33 117.90 576.88 114.80 567.82 111.51 Z" />
<path fill="#fdfeff" d=" M 81.13 166.48 C 84.45 173.79 85.11 181.99 84.43 189.91 C 84.27 191.86 83.27 193.59 82.46 195.33 C 80.26 185.90 80.50 176.08 81.13 166.48 Z" />
<path fill="#fdfeff" d=" M 653.67 190.74 C 652.85 182.57 653.40 174.05 656.90 166.51 C 657.46 176.08 657.71 185.85 655.53 195.26 C 654.83 193.79 654.01 192.34 653.67 190.74 Z" />
<path fill="#fdfeff" d=" M 86.52 198.09 C 91.26 188.96 100.88 183.89 110.02 180.11 C 103.07 187.13 95.37 193.61 86.52 198.09 Z" />
<path fill="#fdfeff" d=" M 627.98 180.09 C 637.09 183.91 646.69 188.93 651.47 198.03 C 642.51 193.77 634.93 187.07 627.98 180.09 Z" />
<path fill="#fdfeff" d=" M 444.52 184.50 C 445.50 184.51 447.46 184.53 448.44 184.54 C 448.47 186.88 448.52 189.24 448.56 191.59 C 451.05 191.68 453.53 191.73 456.02 191.82 C 455.91 193.23 455.81 194.64 455.74 196.05 C 453.30 196.15 450.85 196.18 448.41 196.26 C 448.51 198.88 448.52 201.50 448.67 204.11 C 463.41 213.62 477.74 223.76 492.19 233.71 C 498.20 237.93 504.53 241.70 510.22 246.37 C 501.46 247.96 492.76 249.94 484.01 251.51 C 459.34 251.69 434.66 251.46 409.99 251.34 C 400.72 250.51 391.68 248.04 382.53 246.39 C 387.09 242.20 392.51 239.14 397.50 235.51 C 413.19 224.89 428.75 214.07 444.44 203.44 C 444.46 201.05 444.47 198.66 444.52 196.27 C 441.98 196.19 439.44 196.15 436.91 196.08 C 436.85 194.67 436.82 193.26 436.85 191.85 C 439.37 191.74 441.90 191.68 444.42 191.59 C 444.45 189.22 444.48 186.86 444.52 184.50 Z" />
<path fill="#fdfeff" d=" M 319.82 204.88 C 323.42 204.82 327.03 204.82 330.63 204.92 C 331.14 209.54 331.24 214.19 331.13 218.84 C 335.76 218.80 340.37 219.45 345.01 219.51 C 345.30 223.07 345.30 226.64 345.20 230.21 C 340.51 230.30 335.81 230.27 331.12 230.28 C 330.97 239.90 331.59 249.56 330.58 259.15 C 326.98 259.21 323.39 259.19 319.79 259.12 C 319.66 249.51 319.78 239.90 319.72 230.29 C 315.11 230.29 310.50 230.31 305.89 230.26 C 305.79 226.60 305.87 222.94 306.24 219.30 C 310.75 219.23 315.24 218.71 319.75 218.88 C 319.71 214.21 319.71 209.54 319.82 204.88 Z" />
<path fill="#fdfeff" d=" M 258.94 227.96 C 266.49 222.58 275.68 219.30 285.00 219.45 C 291.07 219.50 297.14 219.33 303.20 219.60 C 303.21 223.14 303.20 226.68 303.20 230.23 C 295.29 230.59 287.35 229.93 279.46 230.64 C 270.52 232.33 262.19 237.48 256.93 244.94 C 251.35 252.43 249.37 262.24 250.92 271.39 C 253.06 285.00 264.22 296.66 277.67 299.53 C 285.67 300.32 294.33 300.72 301.56 296.57 C 313.64 290.41 321.32 277.07 320.64 263.51 C 324.20 263.30 327.76 263.37 331.33 263.32 C 332.02 277.20 325.83 291.23 315.25 300.21 C 304.86 309.14 290.27 313.13 276.83 310.31 C 267.86 308.78 259.64 304.13 253.13 297.88 C 244.01 288.81 238.99 275.82 239.64 262.98 C 240.29 249.18 247.63 235.88 258.94 227.96 Z" />
<path fill="#fdfeff" d=" M 271.26 262.71 C 272.49 253.28 275.77 243.46 283.21 237.10 C 283.56 245.79 283.40 254.50 283.31 263.19 C 279.28 263.32 275.25 263.26 271.26 262.71 Z" />
<path fill="#fdfeff" d=" M 287.91 237.19 C 295.09 243.75 299.10 253.54 299.37 263.19 C 295.50 263.24 291.62 263.23 287.75 263.19 C 287.70 254.52 287.51 245.85 287.91 237.19 Z" />
<path fill="#fdfeff" d=" M 295.83 238.31 C 305.90 242.57 313.28 252.21 314.30 263.16 C 311.03 263.21 307.75 263.24 304.48 263.14 C 303.87 254.22 300.61 245.80 295.83 238.31 Z" />
<path fill="#fdfeff" d=" M 256.65 263.16 C 257.81 252.45 264.70 242.68 274.77 238.61 C 270.29 246.09 267.33 254.39 266.44 263.08 C 263.18 263.24 259.91 263.23 256.65 263.16 Z" />
<path fill="#fdfeff" d=" M 390.45 252.89 C 396.67 253.41 402.67 255.59 408.95 255.51 C 433.31 255.59 457.66 255.75 482.02 255.90 C 488.85 255.76 495.40 253.52 502.14 252.64 C 502.34 266.76 502.12 280.88 502.23 295.00 C 502.29 298.14 502.11 301.29 501.69 304.40 C 500.10 304.61 498.51 304.85 496.95 305.16 C 496.85 295.13 497.03 285.10 496.89 275.07 C 496.88 272.26 495.41 268.46 491.97 269.03 C 487.12 267.79 484.03 272.82 484.19 277.08 C 484.02 288.12 484.19 299.16 484.10 310.20 C 475.33 310.32 466.56 310.28 457.80 310.24 C 457.67 299.49 457.82 288.73 457.76 277.98 C 457.96 273.91 454.89 270.41 451.41 268.72 C 448.04 268.18 443.97 267.69 441.25 270.22 C 439.22 271.93 437.32 274.27 437.43 277.08 C 437.23 288.12 437.52 299.17 437.29 310.22 C 427.75 310.28 418.21 310.32 408.68 310.22 C 408.51 299.15 408.73 288.07 408.59 277.00 C 408.67 273.73 406.70 270.70 404.11 268.85 C 400.48 266.85 395.67 269.90 396.08 274.08 C 396.02 284.54 396.17 295.00 395.53 305.45 C 393.87 304.83 392.09 304.42 390.65 303.37 C 389.46 286.58 389.82 269.70 390.45 252.89 Z" />
<path fill="#fdfeff" d=" M 256.71 267.52 C 259.96 267.51 263.21 267.49 266.46 267.45 C 267.30 276.12 270.08 284.52 274.93 291.78 C 264.69 288.23 257.81 278.09 256.71 267.52 Z" />
<path fill="#fdfeff" d=" M 304.52 267.47 C 307.77 267.48 311.02 267.48 314.28 267.49 C 313.25 277.95 306.48 287.77 296.60 291.64 C 300.51 284.06 303.93 276.11 304.52 267.47 Z" />
<path fill="#fdfeff" d=" M 271.37 267.56 C 275.36 267.47 279.35 267.48 283.34 267.55 C 283.39 276.09 283.54 284.63 283.21 293.16 C 278.80 290.23 276.49 285.27 274.37 280.62 C 272.47 276.52 271.86 272.00 271.37 267.56 Z" />
<path fill="#fdfeff" d=" M 287.72 267.54 C 291.63 267.47 295.54 267.46 299.45 267.59 C 298.90 277.25 295.12 286.99 287.85 293.57 C 287.50 284.90 287.75 276.22 287.72 267.54 Z" />
<path fill="#fdfeff" d=" M 37.35 268.91 C 42.92 279.99 47.55 292.16 47.14 304.74 C 42.95 299.73 41.49 293.20 39.90 287.04 C 38.63 281.07 37.26 275.05 37.35 268.91 Z" />
<path fill="#fdfeff" d=" M 693.08 288.02 C 694.87 281.39 697.51 275.02 700.66 268.92 C 700.75 275.13 699.29 281.20 698.03 287.24 C 696.44 293.27 695.03 299.68 690.91 304.58 C 690.24 298.96 691.65 293.40 693.08 288.02 Z" />
<path fill="#fdfeff" d=" M 52.88 306.93 C 57.22 294.66 66.17 284.64 75.68 276.06 C 69.62 287.27 63.65 299.48 52.88 306.93 Z" />
<path fill="#fdfeff" d=" M 662.28 276.09 C 671.83 284.64 680.79 294.70 685.10 306.98 C 674.39 299.47 668.34 287.31 662.28 276.09 Z" />
<path fill="#fdfeff" d=" M 369.62 364.08 C 370.76 367.64 371.92 371.21 373.59 374.57 C 377.08 374.49 380.58 374.51 384.08 374.59 C 381.31 376.84 378.52 379.07 375.61 381.15 C 376.46 384.55 377.46 387.91 378.41 391.28 C 375.50 389.59 372.91 387.38 369.87 385.92 C 366.50 387.15 363.84 389.70 360.90 391.69 C 361.78 388.23 362.89 384.84 363.84 381.40 C 360.98 379.03 358.01 376.81 355.10 374.52 C 358.75 374.51 362.41 374.66 366.06 374.42 C 367.69 371.14 368.49 367.54 369.62 364.08 Z" />
<path fill="#fdfeff" d=" M 280.52 374.50 C 281.56 371.08 282.68 367.67 284.03 364.36 C 285.36 367.69 286.03 371.31 287.92 374.40 C 291.40 374.66 294.90 374.51 298.39 374.67 C 295.53 377.02 292.57 379.26 289.50 381.33 C 290.82 384.75 291.90 388.25 293.05 391.74 C 290.01 389.67 286.98 387.60 283.99 385.48 C 281.05 387.59 278.04 389.60 275.10 391.71 C 276.07 388.29 277.65 384.96 277.82 381.38 C 275.61 378.86 272.66 377.10 270.31 374.72 C 273.70 374.49 277.11 374.53 280.52 374.50 Z" />
<path fill="#fdfeff" d=" M 450.45 374.51 C 451.56 371.11 452.68 367.71 453.98 364.37 C 455.32 367.70 456.08 371.29 457.87 374.43 C 461.35 374.62 464.85 374.46 468.33 374.70 C 465.53 376.94 462.67 379.11 459.75 381.20 C 460.69 384.74 461.79 388.24 462.91 391.73 C 459.94 389.63 456.94 387.58 453.98 385.48 C 451.04 387.48 448.16 389.57 445.16 391.47 C 446.15 388.07 447.23 384.69 448.13 381.25 C 445.36 379.21 442.66 377.07 440.17 374.69 C 443.59 374.47 447.02 374.49 450.45 374.51 Z" />
<path fill="#fdfeff" d=" M 664.94 386.16 C 671.85 395.02 678.72 405.25 678.18 416.99 C 676.78 415.25 675.56 413.39 674.66 411.35 C 671.00 403.12 667.68 394.74 664.94 386.16 Z" />
<path fill="#fdfeff" d=" M 59.88 412.00 C 61.40 402.46 66.65 394.03 72.82 386.78 C 69.47 397.13 65.50 407.32 60.49 416.99 C 60.14 415.35 59.47 413.69 59.88 412.00 Z" />
<path fill="#fdfeff" d=" M 32.21 394.01 C 41.53 399.94 51.83 407.03 54.58 418.44 C 46.02 411.41 39.05 402.66 32.21 394.01 Z" />
<path fill="#fdfeff" d=" M 683.20 418.63 C 686.22 407.31 696.18 399.84 705.76 394.13 C 700.69 400.87 694.97 407.07 689.27 413.28 C 687.42 415.25 685.37 417.02 683.20 418.63 Z" />
<path fill="#fdfeff" d=" M 303.88 419.54 C 313.81 417.90 323.93 418.15 333.96 418.44 C 344.30 419.32 354.41 422.18 364.00 426.09 C 365.09 426.37 365.68 427.07 365.75 428.21 C 366.44 431.43 366.10 434.74 366.16 438.00 C 366.14 458.33 366.15 478.67 366.15 499.00 C 366.10 505.35 366.39 511.72 365.74 518.05 C 353.83 514.33 341.41 512.75 329.04 511.53 C 320.62 511.67 312.05 510.72 303.77 512.68 C 303.73 481.64 303.50 450.58 303.88 419.54 Z" />
<path fill="#fdfeff" d=" M 368.79 427.00 C 380.57 422.04 393.11 418.19 406.01 418.25 C 414.48 418.26 423.07 417.90 431.39 419.76 C 431.39 450.76 431.47 481.75 431.35 512.74 C 423.02 510.73 414.41 511.63 405.94 511.53 C 393.40 512.62 380.82 514.32 368.81 518.29 C 368.74 487.86 368.79 457.43 368.79 427.00 Z" />
<path fill="#fdfeff" d=" M 292.54 429.80 C 295.18 429.61 297.82 429.31 300.40 428.68 C 301.74 434.02 301.16 439.55 301.25 445.00 C 301.18 468.66 301.35 492.32 301.16 515.99 C 311.67 514.02 322.41 514.32 333.03 514.88 C 341.68 515.84 350.41 516.71 358.80 519.15 C 361.59 519.92 364.21 521.27 367.07 521.82 C 370.00 521.74 372.61 520.17 375.39 519.39 C 383.69 516.84 392.39 515.96 400.97 514.90 C 411.94 514.37 423.05 513.91 433.88 516.09 C 433.94 490.40 433.90 464.70 433.90 439.00 C 434.01 435.55 434.27 432.11 434.33 428.66 C 436.99 429.24 439.70 429.60 442.43 429.81 C 443.53 437.83 443.07 445.93 443.15 454.00 C 443.15 470.00 443.15 486.00 443.15 502.00 C 443.09 510.90 443.46 519.82 442.53 528.69 C 438.38 529.28 434.18 529.31 430.01 529.22 C 388.34 529.21 346.67 529.22 305.00 529.22 C 300.81 529.30 296.62 529.28 292.46 528.69 C 291.39 500.82 292.17 472.90 291.88 445.00 C 292.14 439.93 292.44 434.87 292.54 429.80 Z" />
<path fill="#fdfeff" d=" M 104.90 502.01 C 106.06 495.37 105.19 488.58 106.12 481.92 C 107.80 494.63 110.46 508.16 106.04 520.60 C 104.06 514.61 104.37 508.21 104.90 502.01 Z" />
<path fill="#fdfeff" d=" M 631.89 481.91 C 632.70 487.59 632.11 493.34 632.67 499.03 C 633.59 506.22 634.22 513.73 631.92 520.73 C 629.54 514.46 629.33 507.64 629.72 501.03 C 630.36 494.65 630.47 488.20 631.89 481.91 Z" />
<path fill="#fdfeff" d=" M 68.75 509.40 C 80.89 512.33 93.65 515.86 102.84 524.84 C 96.18 523.76 90.15 520.60 84.13 517.72 C 78.89 515.17 73.55 512.74 68.75 509.40 Z" />
<path fill="#fdfeff" d=" M 650.89 514.98 C 656.80 512.48 663.03 510.86 669.27 509.41 C 664.44 512.76 659.05 515.16 653.80 517.75 C 648.01 520.51 642.22 523.57 635.84 524.70 C 639.77 520.05 645.33 517.22 650.89 514.98 Z" />
<path fill="#fdfeff" d=" M 177.84 567.36 C 180.66 572.50 182.29 578.16 184.28 583.65 C 186.30 589.71 188.36 595.83 189.03 602.22 C 184.00 596.05 181.30 588.37 179.48 580.72 C 178.67 576.30 177.37 571.88 177.84 567.36 Z" />
<path fill="#fdfeff" d=" M 553.67 583.59 C 555.67 578.12 557.37 572.50 560.20 567.39 C 559.81 579.65 556.46 592.32 549.00 602.24 C 549.58 595.82 551.69 589.68 553.67 583.59 Z" />
<path fill="#fdfeff" d=" M 146.32 602.91 C 158.99 601.34 172.64 602.77 183.85 609.24 C 171.17 608.73 158.63 605.91 146.32 602.91 Z" />
<path fill="#fdfeff" d=" M 554.14 609.26 C 565.32 602.70 579.00 601.36 591.68 602.90 C 579.37 605.95 566.82 608.69 554.14 609.26 Z" />
<path fill="#fdfeff" d=" M 270.08 623.77 C 281.44 630.32 290.95 640.07 297.65 651.30 C 292.13 648.01 287.53 643.47 282.89 639.09 C 278.11 634.44 273.43 629.58 270.08 623.77 Z" />
<path fill="#fdfeff" d=" M 439.79 651.94 C 446.85 640.59 456.20 630.34 467.94 623.75 C 463.43 631.37 456.90 637.49 450.47 643.46 C 447.15 646.57 443.60 649.44 439.79 651.94 Z" />
<path fill="#fdfeff" d=" M 256.79 662.19 C 266.04 658.46 276.15 657.93 285.97 657.07 C 289.63 656.56 293.34 656.77 297.02 656.85 C 286.94 661.23 275.86 662.46 265.00 663.20 C 262.24 663.07 259.51 662.57 256.79 662.19 Z" />
<path fill="#fdfeff" d=" M 441.14 656.95 C 447.45 656.31 453.73 657.49 460.03 657.68 C 467.14 658.61 474.37 659.42 481.09 662.07 C 478.41 662.55 475.73 663.14 473.01 663.21 C 462.21 662.44 451.20 661.26 441.14 656.95 Z" />
<path fill="#fcc327" d=" M 369.01 7.54 C 370.72 10.72 372.03 14.11 373.90 17.21 C 379.66 25.46 388.55 32.19 398.97 32.47 C 394.63 33.23 390.17 34.11 386.38 36.48 C 382.98 38.61 380.15 41.51 377.39 44.40 C 373.14 48.76 371.25 54.69 368.98 60.19 C 366.27 52.04 361.90 44.24 354.87 39.07 C 350.55 35.68 345.21 33.96 339.88 32.99 C 345.43 31.15 351.47 29.91 356.01 25.98 C 358.85 23.54 361.58 20.92 363.82 17.90 C 365.94 14.66 367.21 10.96 369.01 7.54 Z" />
<path fill="#01a850" d=" M 247.55 29.48 C 253.26 28.02 259.02 26.36 264.96 26.32 C 275.44 25.90 285.95 25.91 296.42 26.66 C 286.85 45.09 271.13 61.45 250.91 67.76 C 240.37 71.46 228.91 71.26 217.94 70.10 C 214.86 70.03 211.51 67.54 208.66 69.60 C 194.35 78.25 180.40 87.64 167.69 98.53 C 185.51 89.94 205.24 85.58 224.99 85.45 C 226.48 85.54 227.92 85.88 229.31 86.47 C 219.21 97.97 208.22 108.81 195.83 117.84 C 187.01 124.05 177.40 129.79 166.64 131.71 C 159.96 132.00 152.69 132.94 146.60 129.51 C 143.78 128.12 141.35 126.12 138.91 124.18 C 126.29 136.89 114.82 150.90 105.48 166.21 C 119.17 155.14 133.72 144.93 149.78 137.59 C 149.50 143.34 146.92 148.57 145.04 153.90 C 139.14 168.77 131.24 183.36 119.10 194.06 C 112.89 199.82 105.03 203.74 96.73 205.36 C 92.19 205.94 87.60 205.61 83.04 205.63 C 78.03 217.09 73.08 228.59 69.18 240.49 C 66.03 250.31 62.62 260.11 60.99 270.33 C 68.26 255.78 76.98 241.93 87.52 229.53 C 91.46 224.94 95.27 220.17 100.02 216.39 C 101.12 229.25 100.54 242.20 99.28 255.03 C 97.15 271.04 92.83 287.60 82.13 300.14 C 74.96 308.86 64.23 314.54 52.94 315.30 C 52.30 322.72 52.58 330.19 51.88 337.61 C 51.20 346.75 52.54 355.85 52.54 364.98 C 52.46 372.09 54.41 379.01 54.77 386.09 C 58.47 361.90 65.95 338.09 78.10 316.78 C 84.07 336.34 90.88 356.26 89.95 377.00 C 90.67 389.06 87.78 401.58 80.22 411.20 C 75.89 417.20 69.39 420.99 63.14 424.69 C 69.58 449.27 79.27 473.03 92.00 495.03 C 89.43 479.17 90.00 463.03 90.48 447.03 C 91.26 436.50 93.06 426.07 94.90 415.68 C 103.10 426.50 109.18 438.78 114.94 451.02 C 120.05 463.76 125.30 477.05 124.84 491.02 C 124.76 496.61 125.23 502.35 123.54 507.77 C 121.61 514.76 117.62 521.03 112.67 526.28 C 122.93 540.48 134.73 553.52 147.22 565.78 C 153.63 571.71 159.86 577.88 166.89 583.09 C 156.96 567.33 148.68 550.47 143.31 532.60 C 140.52 523.87 138.44 514.95 136.57 506.00 C 152.83 516.48 169.01 527.52 182.18 541.83 C 190.23 550.39 196.97 560.57 199.88 572.07 C 201.96 582.92 200.99 594.52 195.67 604.35 C 202.55 609.72 210.35 613.78 217.86 618.19 C 232.99 626.38 248.62 633.89 265.12 638.88 C 261.65 635.65 257.78 632.89 254.13 629.87 C 238.40 616.04 224.56 600.10 213.16 582.53 C 219.71 583.22 226.10 584.90 232.52 586.35 C 249.40 590.21 266.27 595.55 280.85 605.12 C 291.07 611.90 299.88 621.60 303.34 633.59 C 305.07 638.42 304.50 643.61 305.05 648.62 C 316.60 651.05 328.04 654.01 339.22 657.81 C 348.69 660.85 357.66 665.22 366.81 669.09 C 369.65 670.71 372.50 668.29 375.17 667.39 C 393.56 658.66 413.13 652.62 433.08 648.67 C 433.44 643.86 432.96 638.91 434.45 634.25 C 437.23 624.70 443.03 616.04 450.81 609.85 C 462.39 600.17 476.67 594.53 490.94 590.12 C 502.09 586.94 513.43 584.41 524.83 582.29 C 510.78 604.36 492.85 624.03 471.70 639.49 C 492.63 632.54 512.68 623.09 531.46 611.54 C 534.90 609.31 538.67 607.50 541.75 604.77 C 541.71 601.69 539.71 598.97 538.97 596.01 C 535.33 586.05 536.31 574.97 540.29 565.27 C 546.44 550.07 558.36 538.20 570.66 527.78 C 580.27 520.16 590.20 512.84 600.81 506.68 C 600.42 513.05 598.39 519.13 596.81 525.26 C 591.44 545.80 582.45 565.26 571.05 583.13 C 584.93 572.46 597.01 559.70 608.83 546.86 C 614.51 540.15 620.32 533.52 625.31 526.27 C 620.60 521.17 616.67 515.24 614.70 508.53 C 612.73 502.91 613.24 496.87 613.17 491.02 C 612.72 476.76 618.05 463.17 623.43 450.22 C 629.14 438.29 635.01 426.24 643.10 415.72 C 644.96 426.41 646.83 437.12 647.54 447.96 C 648.02 463.44 648.43 479.03 646.13 494.39 C 659.09 472.75 668.41 448.99 674.83 424.63 C 668.58 420.97 662.12 417.17 657.77 411.21 C 649.12 400.22 646.92 385.61 647.60 372.00 C 648.57 353.04 654.22 334.75 659.93 316.77 C 672.03 338.14 679.46 361.91 683.26 386.10 C 683.68 378.69 685.58 371.43 685.49 363.98 C 685.44 355.61 686.79 347.27 686.09 338.90 C 685.38 331.04 685.92 323.10 684.85 315.28 C 673.62 314.45 662.99 308.83 655.86 300.15 C 645.26 287.55 640.84 271.03 638.72 255.01 C 637.47 242.06 636.89 228.97 637.98 215.98 C 654.01 231.66 667.05 250.26 677.00 270.32 C 675.21 259.58 671.79 249.21 668.28 238.93 C 664.43 227.55 659.83 216.43 654.79 205.53 C 648.96 205.66 642.97 206.24 637.34 204.38 C 623.60 200.68 613.21 189.91 605.48 178.47 C 597.23 165.81 591.43 151.67 587.39 137.15 C 603.99 144.78 619.21 155.16 633.16 166.91 C 623.37 151.50 611.96 137.10 599.08 124.15 C 592.63 130.15 583.82 133.54 574.96 132.38 C 558.99 130.41 545.35 120.74 533.19 110.85 C 524.38 103.12 515.55 95.20 508.53 85.76 C 513.69 85.28 518.90 85.41 524.03 86.12 C 540.11 87.04 555.75 91.83 570.35 98.48 C 557.92 88.01 544.43 78.87 530.64 70.31 C 529.10 69.49 527.46 68.12 525.63 68.90 C 516.60 71.29 507.16 71.00 497.93 70.37 C 482.16 68.11 467.53 59.86 456.78 48.20 C 450.84 41.73 445.40 34.65 441.65 26.68 C 453.40 25.79 465.21 25.85 476.96 26.54 C 490.98 28.58 505.22 33.40 515.57 43.45 C 521.50 48.96 525.75 56.12 528.13 63.83 C 528.75 66.98 532.20 67.89 534.50 69.54 C 548.28 77.39 561.11 86.75 573.78 96.26 C 560.81 78.78 551.84 58.09 549.07 36.44 C 564.66 45.45 579.43 56.12 591.93 69.14 C 599.91 78.10 607.58 88.57 608.45 100.96 C 609.10 108.23 605.96 115.12 602.02 121.03 C 615.24 134.33 627.12 148.89 637.67 164.40 C 636.55 155.27 634.17 146.27 634.32 137.02 C 634.13 127.66 633.92 118.28 634.47 108.92 C 647.46 121.66 658.59 136.71 665.14 153.78 C 671.18 169.45 670.78 188.98 659.17 202.06 C 669.79 223.73 677.83 246.58 683.91 269.91 C 684.76 264.78 685.28 259.61 685.76 254.44 C 688.64 236.54 693.58 218.86 701.24 202.40 C 709.06 218.49 714.50 235.79 717.33 253.46 C 717.92 260.91 717.81 268.42 717.51 275.89 C 716.08 286.34 711.93 296.79 704.14 304.15 C 700.59 307.95 696.02 310.54 691.43 312.86 C 693.45 329.16 692.78 345.61 692.80 361.99 C 692.97 369.76 691.46 377.41 691.15 385.15 C 702.58 364.80 717.04 346.07 734.67 330.70 C 734.74 339.83 735.01 349.04 733.58 358.09 C 731.84 374.52 728.52 391.40 719.49 405.53 C 713.93 414.00 705.79 421.08 695.98 424.08 C 691.64 425.56 687.05 425.94 682.52 426.39 C 678.05 445.23 671.39 463.53 663.10 481.02 C 660.38 486.80 657.20 492.36 654.62 498.20 C 660.06 493.81 665.06 488.89 670.63 484.66 C 682.63 475.47 695.64 467.63 709.31 461.19 C 713.34 459.28 717.33 457.23 721.63 455.98 C 715.47 472.24 708.49 488.36 698.97 502.97 C 691.39 514.43 681.81 525.17 669.12 531.01 C 657.81 536.29 644.50 535.70 632.90 531.66 C 620.47 548.12 606.95 563.80 591.80 577.82 C 588.13 581.06 584.66 584.51 581.13 587.88 C 599.64 579.36 619.63 574.51 639.77 571.79 C 645.23 571.21 650.74 571.08 656.23 571.17 C 645.79 583.69 634.51 595.60 621.80 605.84 C 611.30 613.98 599.52 621.31 586.20 623.48 C 578.55 624.27 570.53 624.38 563.27 621.51 C 557.74 619.58 552.94 616.18 548.09 613.00 C 530.92 624.49 512.80 634.60 493.74 642.62 C 488.49 644.89 483.06 646.74 477.87 649.15 C 483.92 649.32 489.98 649.37 496.03 649.65 C 515.23 651.67 534.32 655.80 552.32 662.87 C 535.21 671.46 517.47 679.20 498.70 683.34 C 489.95 685.25 480.92 685.00 472.03 684.66 C 460.59 683.37 449.61 677.64 442.28 668.72 C 439.82 665.95 438.06 662.68 435.83 659.76 C 431.46 659.84 427.25 661.55 423.01 662.54 C 409.50 666.54 395.81 670.49 383.23 676.95 C 397.70 684.83 411.98 693.46 424.05 704.79 C 416.72 704.86 409.39 704.91 402.06 704.82 C 400.49 704.88 399.31 703.72 398.10 702.91 C 388.85 695.73 379.43 688.66 369.01 683.25 C 357.70 689.05 347.75 697.06 337.51 704.48 C 329.73 705.35 321.78 704.64 313.94 704.78 C 326.07 693.37 340.47 684.82 354.92 676.71 C 337.96 669.20 320.25 663.32 302.11 659.46 C 294.86 673.26 280.78 683.63 265.03 684.70 C 256.73 684.91 248.33 685.24 240.16 683.49 C 221.06 679.46 203.05 671.58 185.67 662.89 C 203.33 655.88 222.09 651.89 240.93 649.72 C 247.34 649.36 253.76 649.32 260.17 649.13 C 250.81 644.89 240.98 641.75 231.84 637.02 C 217.25 630.12 203.31 621.94 189.87 613.02 C 183.52 617.29 176.92 621.55 169.31 623.13 C 157.90 625.22 145.88 623.52 135.56 618.22 C 113.53 607.34 96.98 588.56 80.96 570.46 C 107.01 571.71 133.12 577.00 156.90 587.92 C 150.80 581.73 144.08 576.20 138.02 569.97 C 127.09 558.82 116.70 547.11 107.42 534.54 C 106.68 533.67 106.05 532.64 105.01 532.10 C 101.77 532.37 98.74 533.67 95.53 534.15 C 86.60 535.46 77.15 534.96 68.89 531.05 C 53.30 523.76 42.48 509.51 34.09 494.95 C 27.29 482.66 21.40 469.83 16.68 456.60 C 18.70 457.08 20.73 457.58 22.64 458.39 C 39.52 465.94 55.70 475.24 70.11 486.86 C 74.68 490.46 78.76 494.63 83.36 498.19 C 77.36 485.65 70.76 473.37 65.98 460.28 C 61.81 449.26 58.38 437.98 55.32 426.61 C 49.32 425.50 43.02 425.25 37.49 422.33 C 23.68 416.24 15.20 402.51 10.55 388.71 C 4.57 370.00 2.84 350.20 3.28 330.64 C 20.88 346.07 35.45 364.76 46.80 385.20 C 46.66 379.09 45.54 373.08 45.30 366.98 C 45.24 348.93 44.39 330.80 46.56 312.84 C 38.46 309.02 31.19 303.07 26.81 295.16 C 22.85 287.77 20.17 279.49 20.30 271.04 C 20.32 264.90 20.02 258.71 20.79 252.61 C 23.74 235.26 29.01 218.22 36.77 202.42 C 44.37 218.90 49.38 236.55 52.24 254.46 C 52.70 259.62 53.25 264.79 54.14 269.91 C 60.05 246.52 68.27 223.72 78.82 202.02 C 74.37 196.84 71.22 190.58 69.79 183.90 C 68.13 173.05 69.26 161.72 73.67 151.61 C 79.25 137.93 87.96 125.75 97.77 114.79 C 99.50 112.81 101.46 111.03 103.55 109.43 C 104.18 120.95 103.82 132.48 103.46 144.00 C 102.44 150.78 101.48 157.59 100.16 164.32 C 108.19 153.69 115.68 142.58 124.85 132.86 C 128.46 128.81 132.18 124.87 135.99 121.00 C 130.63 113.53 127.75 103.90 130.51 94.85 C 135.25 78.25 148.42 65.94 161.28 55.24 C 170.02 48.48 178.94 41.74 188.87 36.81 C 186.10 58.30 177.14 78.86 164.23 96.19 C 177.87 85.94 191.82 76.08 206.67 67.66 C 210.13 66.29 210.08 62.16 211.52 59.26 C 217.63 44.09 232.11 33.68 247.55 29.48 M 215.52 64.39 C 222.06 62.36 228.17 59.20 234.30 56.19 C 238.01 54.39 241.55 52.16 244.35 49.09 C 233.43 50.50 222.43 55.64 215.52 64.39 M 493.46 49.39 C 498.22 53.69 504.09 56.43 509.82 59.17 C 513.95 61.12 518.09 63.12 522.50 64.39 C 519.01 59.52 513.86 56.22 508.60 53.57 C 503.86 51.30 498.79 49.30 493.46 49.39 M 140.07 116.23 C 146.06 108.51 148.58 98.32 147.21 88.67 C 143.81 97.53 140.81 106.71 140.07 116.23 M 597.97 116.23 C 597.14 106.68 594.14 97.49 590.77 88.58 C 589.48 98.24 591.85 108.55 597.97 116.23 M 142.47 117.68 C 152.01 117.73 161.37 114.93 170.17 111.42 C 160.61 110.81 150.35 111.70 142.47 117.68 M 567.82 111.51 C 576.88 114.80 586.33 117.90 596.09 117.73 C 587.84 112.06 577.61 110.53 567.82 111.51 M 81.13 166.48 C 80.50 176.08 80.26 185.90 82.46 195.33 C 83.27 193.59 84.27 191.86 84.43 189.91 C 85.11 181.99 84.45 173.79 81.13 166.48 M 653.67 190.74 C 654.01 192.34 654.83 193.79 655.53 195.26 C 657.71 185.85 657.46 176.08 656.90 166.51 C 653.40 174.05 652.85 182.57 653.67 190.74 M 86.52 198.09 C 95.37 193.61 103.07 187.13 110.02 180.11 C 100.88 183.89 91.26 188.96 86.52 198.09 M 627.98 180.09 C 634.93 187.07 642.51 193.77 651.47 198.03 C 646.69 188.93 637.09 183.91 627.98 180.09 M 37.35 268.91 C 37.26 275.05 38.63 281.07 39.90 287.04 C 41.49 293.20 42.95 299.73 47.14 304.74 C 47.55 292.16 42.92 279.99 37.35 268.91 M 693.08 288.02 C 691.65 293.40 690.24 298.96 690.91 304.58 C 695.03 299.68 696.44 293.27 698.03 287.24 C 699.29 281.20 700.75 275.13 700.66 268.92 C 697.51 275.02 694.87 281.39 693.08 288.02 M 52.88 306.93 C 63.65 299.48 69.62 287.27 75.68 276.06 C 66.17 284.64 57.22 294.66 52.88 306.93 M 662.28 276.09 C 668.34 287.31 674.39 299.47 685.10 306.98 C 680.79 294.70 671.83 284.64 662.28 276.09 M 664.94 386.16 C 667.68 394.74 671.00 403.12 674.66 411.35 C 675.56 413.39 676.78 415.25 678.18 416.99 C 678.72 405.25 671.85 395.02 664.94 386.16 M 59.88 412.00 C 59.47 413.69 60.14 415.35 60.49 416.99 C 65.50 407.32 69.47 397.13 72.82 386.78 C 66.65 394.03 61.40 402.46 59.88 412.00 M 32.21 394.01 C 39.05 402.66 46.02 411.41 54.58 418.44 C 51.83 407.03 41.53 399.94 32.21 394.01 M 683.20 418.63 C 685.37 417.02 687.42 415.25 689.27 413.28 C 694.97 407.07 700.69 400.87 705.76 394.13 C 696.18 399.84 686.22 407.31 683.20 418.63 M 104.90 502.01 C 104.37 508.21 104.06 514.61 106.04 520.60 C 110.46 508.16 107.80 494.63 106.12 481.92 C 105.19 488.58 106.06 495.37 104.90 502.01 M 631.89 481.91 C 630.47 488.20 630.36 494.65 629.72 501.03 C 629.33 507.64 629.54 514.46 631.92 520.73 C 634.22 513.73 633.59 506.22 632.67 499.03 C 632.11 493.34 632.70 487.59 631.89 481.91 M 68.75 509.40 C 73.55 512.74 78.89 515.17 84.13 517.72 C 90.15 520.60 96.18 523.76 102.84 524.84 C 93.65 515.86 80.89 512.33 68.75 509.40 M 650.89 514.98 C 645.33 517.22 639.77 520.05 635.84 524.70 C 642.22 523.57 648.01 520.51 653.80 517.75 C 659.05 515.16 664.44 512.76 669.27 509.41 C 663.03 510.86 656.80 512.48 650.89 514.98 M 177.84 567.36 C 177.37 571.88 178.67 576.30 179.48 580.72 C 181.30 588.37 184.00 596.05 189.03 602.22 C 188.36 595.83 186.30 589.71 184.28 583.65 C 182.29 578.16 180.66 572.50 177.84 567.36 M 553.67 583.59 C 551.69 589.68 549.58 595.82 549.00 602.24 C 556.46 592.32 559.81 579.65 560.20 567.39 C 557.37 572.50 555.67 578.12 553.67 583.59 M 146.32 602.91 C 158.63 605.91 171.17 608.73 183.85 609.24 C 172.64 602.77 158.99 601.34 146.32 602.91 M 554.14 609.26 C 566.82 608.69 579.37 605.95 591.68 602.90 C 579.00 601.36 565.32 602.70 554.14 609.26 M 270.08 623.77 C 273.43 629.58 278.11 634.44 282.89 639.09 C 287.53 643.47 292.13 648.01 297.65 651.30 C 290.95 640.07 281.44 630.32 270.08 623.77 M 439.79 651.94 C 443.60 649.44 447.15 646.57 450.47 643.46 C 456.90 637.49 463.43 631.37 467.94 623.75 C 456.20 630.34 446.85 640.59 439.79 651.94 M 256.79 662.19 C 259.51 662.57 262.24 663.07 265.00 663.20 C 275.86 662.46 286.94 661.23 297.02 656.85 C 293.34 656.77 289.63 656.56 285.97 657.07 C 276.15 657.93 266.04 658.46 256.79 662.19 M 441.14 656.95 C 451.20 661.26 462.21 662.44 473.01 663.21 C 475.73 663.14 478.41 662.55 481.09 662.07 C 474.37 659.42 467.14 658.61 460.03 657.68 C 453.73 657.49 447.45 656.31 441.14 656.95 Z" />
<path fill="#01a850" d=" M 179.28 349.31 C 305.74 349.22 432.21 349.32 558.68 349.31 C 566.79 368.30 572.75 388.40 574.63 409.02 C 575.02 416.69 574.85 424.38 574.77 432.06 C 573.32 452.65 565.64 472.72 553.16 489.15 C 543.40 502.34 530.77 513.15 517.09 522.08 C 493.93 537.12 467.50 546.38 440.71 552.52 C 421.78 557.85 403.39 565.37 386.41 575.32 C 380.22 578.94 374.37 583.15 368.97 587.87 C 349.39 569.61 323.96 559.00 298.29 552.55 C 274.88 547.94 251.70 540.93 230.83 529.18 C 213.97 519.86 198.48 507.67 186.62 492.40 C 175.33 478.02 167.66 460.85 164.50 442.84 C 162.51 432.34 163.24 421.62 163.23 411.00 C 164.84 389.69 171.10 368.97 179.28 349.31 M 369.62 364.08 C 368.49 367.54 367.69 371.14 366.06 374.42 C 362.41 374.66 358.75 374.51 355.10 374.52 C 358.01 376.81 360.98 379.03 363.84 381.40 C 362.89 384.84 361.78 388.23 360.90 391.69 C 363.84 389.70 366.50 387.15 369.87 385.92 C 372.91 387.38 375.50 389.59 378.41 391.28 C 377.46 387.91 376.46 384.55 375.61 381.15 C 378.52 379.07 381.31 376.84 384.08 374.59 C 380.58 374.51 377.08 374.49 373.59 374.57 C 371.92 371.21 370.76 367.64 369.62 364.08 M 280.52 374.50 C 277.11 374.53 273.70 374.49 270.31 374.72 C 272.66 377.10 275.61 378.86 277.82 381.38 C 277.65 384.96 276.07 388.29 275.10 391.71 C 278.04 389.60 281.05 387.59 283.99 385.48 C 286.98 387.60 290.01 389.67 293.05 391.74 C 291.90 388.25 290.82 384.75 289.50 381.33 C 292.57 379.26 295.53 377.02 298.39 374.67 C 294.90 374.51 291.40 374.66 287.92 374.40 C 286.03 371.31 285.36 367.69 284.03 364.36 C 282.68 367.67 281.56 371.08 280.52 374.50 M 450.45 374.51 C 447.02 374.49 443.59 374.47 440.17 374.69 C 442.66 377.07 445.36 379.21 448.13 381.25 C 447.23 384.69 446.15 388.07 445.16 391.47 C 448.16 389.57 451.04 387.48 453.98 385.48 C 456.94 387.58 459.94 389.63 462.91 391.73 C 461.79 388.24 460.69 384.74 459.75 381.20 C 462.67 379.11 465.53 376.94 468.33 374.70 C 464.85 374.46 461.35 374.62 457.87 374.43 C 456.08 371.29 455.32 367.70 453.98 364.37 C 452.68 367.71 451.56 371.11 450.45 374.51 M 303.88 419.54 C 303.50 450.58 303.73 481.64 303.77 512.68 C 312.05 510.72 320.62 511.67 329.04 511.53 C 341.41 512.75 353.83 514.33 365.74 518.05 C 366.39 511.72 366.10 505.35 366.15 499.00 C 366.15 478.67 366.14 458.33 366.16 438.00 C 366.10 434.74 366.44 431.43 365.75 428.21 C 365.68 427.07 365.09 426.37 364.00 426.09 C 354.41 422.18 344.30 419.32 333.96 418.44 C 323.93 418.15 313.81 417.90 303.88 419.54 M 368.79 427.00 C 368.79 457.43 368.74 487.86 368.81 518.29 C 380.82 514.32 393.40 512.62 405.94 511.53 C 414.41 511.63 423.02 510.73 431.35 512.74 C 431.47 481.75 431.39 450.76 431.39 419.76 C 423.07 417.90 414.48 418.26 406.01 418.25 C 393.11 418.19 380.57 422.04 368.79 427.00 M 292.54 429.80 C 292.44 434.87 292.14 439.93 291.88 445.00 C 292.17 472.90 291.39 500.82 292.46 528.69 C 296.62 529.28 300.81 529.30 305.00 529.22 C 346.67 529.22 388.34 529.21 430.01 529.22 C 434.18 529.31 438.38 529.28 442.53 528.69 C 443.46 519.82 443.09 510.90 443.15 502.00 C 443.15 486.00 443.15 470.00 443.15 454.00 C 443.07 445.93 443.53 437.83 442.43 429.81 C 439.70 429.60 436.99 429.24 434.33 428.66 C 434.27 432.11 434.01 435.55 433.90 439.00 C 433.90 464.70 433.94 490.40 433.88 516.09 C 423.05 513.91 411.94 514.37 400.97 514.90 C 392.39 515.96 383.69 516.84 375.39 519.39 C 372.61 520.17 370.00 521.74 367.07 521.82 C 364.21 521.27 361.59 519.92 358.80 519.15 C 350.41 516.71 341.68 515.84 333.03 514.88 C 322.41 514.32 311.67 514.02 301.16 515.99 C 301.35 492.32 301.18 468.66 301.25 445.00 C 301.16 439.55 301.74 434.02 300.40 428.68 C 297.82 429.31 295.18 429.61 292.54 429.80 Z" />
<path fill="#ed3326" d=" M 166.86 178.14 C 198.38 154.20 229.87 130.21 261.23 106.06 C 269.02 111.88 276.45 118.24 284.87 123.16 C 309.27 138.34 338.37 144.46 366.86 144.44 C 366.95 211.53 366.86 278.63 366.91 345.73 C 304.92 345.66 242.93 345.88 180.94 345.62 C 186.62 331.10 193.99 317.30 200.09 302.95 C 206.88 287.70 213.28 271.81 214.33 254.97 C 215.77 229.52 203.70 203.83 183.42 188.45 C 178.37 184.29 172.42 181.51 166.86 178.14 M 319.82 204.88 C 319.71 209.54 319.71 214.21 319.75 218.88 C 315.24 218.71 310.75 219.23 306.24 219.30 C 305.87 222.94 305.79 226.60 305.89 230.26 C 310.50 230.31 315.11 230.29 319.72 230.29 C 319.78 239.90 319.66 249.51 319.79 259.12 C 323.39 259.19 326.98 259.21 330.58 259.15 C 331.59 249.56 330.97 239.90 331.12 230.28 C 335.81 230.27 340.51 230.30 345.20 230.21 C 345.30 226.64 345.30 223.07 345.01 219.51 C 340.37 219.45 335.76 218.80 331.13 218.84 C 331.24 214.19 331.14 209.54 330.63 204.92 C 327.03 204.82 323.42 204.82 319.82 204.88 M 258.94 227.96 C 247.63 235.88 240.29 249.18 239.64 262.98 C 238.99 275.82 244.01 288.81 253.13 297.88 C 259.64 304.13 267.86 308.78 276.83 310.31 C 290.27 313.13 304.86 309.14 315.25 300.21 C 325.83 291.23 332.02 277.20 331.33 263.32 C 327.76 263.37 324.20 263.30 320.64 263.51 C 321.32 277.07 313.64 290.41 301.56 296.57 C 294.33 300.72 285.67 300.32 277.67 299.53 C 264.22 296.66 253.06 285.00 250.92 271.39 C 249.37 262.24 251.35 252.43 256.93 244.94 C 262.19 237.48 270.52 232.33 279.46 230.64 C 287.35 229.93 295.29 230.59 303.20 230.23 C 303.20 226.68 303.21 223.14 303.20 219.60 C 297.14 219.33 291.07 219.50 285.00 219.45 C 275.68 219.30 266.49 222.58 258.94 227.96 M 271.26 262.71 C 275.25 263.26 279.28 263.32 283.31 263.19 C 283.40 254.50 283.56 245.79 283.21 237.10 C 275.77 243.46 272.49 253.28 271.26 262.71 M 287.91 237.19 C 287.51 245.85 287.70 254.52 287.75 263.19 C 291.62 263.23 295.50 263.24 299.37 263.19 C 299.10 253.54 295.09 243.75 287.91 237.19 M 295.83 238.31 C 300.61 245.80 303.87 254.22 304.48 263.14 C 307.75 263.24 311.03 263.21 314.30 263.16 C 313.28 252.21 305.90 242.57 295.83 238.31 M 256.65 263.16 C 259.91 263.23 263.18 263.24 266.44 263.08 C 267.33 254.39 270.29 246.09 274.77 238.61 C 264.70 242.68 257.81 252.45 256.65 263.16 M 256.71 267.52 C 257.81 278.09 264.69 288.23 274.93 291.78 C 270.08 284.52 267.30 276.12 266.46 267.45 C 263.21 267.49 259.96 267.51 256.71 267.52 M 304.52 267.47 C 303.93 276.11 300.51 284.06 296.60 291.64 C 306.48 287.77 313.25 277.95 314.28 267.49 C 311.02 267.48 307.77 267.48 304.52 267.47 M 271.37 267.56 C 271.86 272.00 272.47 276.52 274.37 280.62 C 276.49 285.27 278.80 290.23 283.21 293.16 C 283.54 284.63 283.39 276.09 283.34 267.55 C 279.35 267.48 275.36 267.47 271.37 267.56 M 287.72 267.54 C 287.75 276.22 287.50 284.90 287.85 293.57 C 295.12 286.99 298.90 277.25 299.45 267.59 C 295.54 267.46 291.63 267.47 287.72 267.54 Z" />
<path fill="#019cdc" d=" M 459.16 120.10 C 465.38 115.98 471.03 111.10 476.94 106.55 C 492.89 118.01 508.15 130.41 523.93 142.11 C 539.83 154.52 556.13 166.40 571.89 178.98 C 542.91 190.77 522.88 221.70 524.34 253.00 C 523.85 264.04 527.47 274.65 530.91 284.98 C 536.47 300.27 543.80 314.83 550.42 329.68 C 552.75 334.97 555.54 340.09 557.22 345.65 C 495.23 345.80 433.25 345.66 371.26 345.72 C 371.16 278.88 371.28 212.03 371.20 145.18 C 384.15 144.48 397.15 143.91 409.86 141.10 C 427.47 137.51 444.39 130.37 459.16 120.10 M 444.52 184.50 C 444.48 186.86 444.45 189.22 444.42 191.59 C 441.90 191.68 439.37 191.74 436.85 191.85 C 436.82 193.26 436.85 194.67 436.91 196.08 C 439.44 196.15 441.98 196.19 444.52 196.27 C 444.47 198.66 444.46 201.05 444.44 203.44 C 428.75 214.07 413.19 224.89 397.50 235.51 C 392.51 239.14 387.09 242.20 382.53 246.39 C 391.68 248.04 400.72 250.51 409.99 251.34 C 434.66 251.46 459.34 251.69 484.01 251.51 C 492.76 249.94 501.46 247.96 510.22 246.37 C 504.53 241.70 498.20 237.93 492.19 233.71 C 477.74 223.76 463.41 213.62 448.67 204.11 C 448.52 201.50 448.51 198.88 448.41 196.26 C 450.85 196.18 453.30 196.15 455.74 196.05 C 455.81 194.64 455.91 193.23 456.02 191.82 C 453.53 191.73 451.05 191.68 448.56 191.59 C 448.52 189.24 448.47 186.88 448.44 184.54 C 447.46 184.53 445.50 184.51 444.52 184.50 M 390.45 252.89 C 389.82 269.70 389.46 286.58 390.65 303.37 C 392.09 304.42 393.87 304.83 395.53 305.45 C 396.17 295.00 396.02 284.54 396.08 274.08 C 395.67 269.90 400.48 266.85 404.11 268.85 C 406.70 270.70 408.67 273.73 408.59 277.00 C 408.73 288.07 408.51 299.15 408.68 310.22 C 418.21 310.32 427.75 310.28 437.29 310.22 C 437.52 299.17 437.23 288.12 437.43 277.08 C 437.32 274.27 439.22 271.93 441.25 270.22 C 443.97 267.69 448.04 268.18 451.41 268.72 C 454.89 270.41 457.96 273.91 457.76 277.98 C 457.82 288.73 457.67 299.49 457.80 310.24 C 466.56 310.28 475.33 310.32 484.10 310.20 C 484.19 299.16 484.02 288.12 484.19 277.08 C 484.03 272.82 487.12 267.79 491.97 269.03 C 495.41 268.46 496.88 272.26 496.89 275.07 C 497.03 285.10 496.85 295.13 496.95 305.16 C 498.51 304.85 500.10 304.61 501.69 304.40 C 502.11 301.29 502.29 298.14 502.23 295.00 C 502.12 280.88 502.34 266.76 502.14 252.64 C 495.40 253.52 488.85 255.76 482.02 255.90 C 457.66 255.75 433.31 255.59 408.95 255.51 C 402.67 255.59 396.67 253.41 390.45 252.89 Z" />
</svg>